<svg xmlns="http://www.w3.org/2000/svg" width="85" height="48" viewBox="0 0 85 48">
  <g fill="none">
    <path fill="#008EC0" d="M65.439,25.052 C64.529,24.909 62.611,24.64 62.611,24.64 C62.67,23.789 62.634,24.511 62.635,23.622 C62.635,16.332 60.73,10.716 58.638,6.806 C56.531,2.885 54.322,0.718 53.45,0.122 C53.119,-0.1 52.671,-0.011 52.449,0.323 C52.227,0.656 52.319,1.105 52.649,1.324 C53.174,1.658 55.181,3.859 56.5,7.323 C57.695,10.468 59.1,14.301 59.1,23.622 C59.1,24.549 59.121,28.272 59.066,29.299 C58.774,34.814 57.546,37.312 56.165,39.486 C54.606,38.139 49.71,33.615 48.373,32.163 C44.12,27.542 41.912,24.883 41.912,21.693 C41.912,17.846 44.653,16.334 47.108,16.334 C48.909,16.334 50.298,17.193 51.197,18.131 C52.221,19.197 53.407,18.213 53.407,16.988 C53.407,16.496 53.366,16.251 52.876,15.966 C51.772,15.35 50.013,14.941 47.925,14.941 C42.443,14.941 39.13,19.238 39.13,22.47 C39.13,24.309 39.621,25.987 41.135,28.115 C37.946,29.995 34.878,33.189 34.878,37.972 C34.878,41.523 37.642,46.978 44.754,47.011 L44.745,47.022 C49.245,47.022 53.26,45.824 56.278,43.555 C59.751,46.2 60.816,46.441 63.554,46.441 C64.616,46.441 64.677,46.089 64.677,45.895 C64.677,45.507 64.547,45.291 62.816,44.273 C61.895,43.73 60.514,42.903 58.587,41.38 C60.733,38.941 62.326,35.057 62.599,27.461 C62.599,27.461 64.709,27.139 65.528,27.01 C66.345,26.881 67.512,26.832 67.512,26.051 C67.511,25.264 66.408,25.202 65.439,25.052 M38.066,36.052 C38.066,32.777 39.62,30.57 41.748,29.177 C42.893,30.857 45.512,33.759 46.575,34.906 C47.616,36.028 51.771,40.003 54.096,41.937 C52.185,43.657 49.856,44.58 47.408,44.794 C47.029,44.823 46.647,44.847 46.248,44.847 C41.666,44.847 38.066,41.161 38.066,36.052"/>
    <path fill="#343333" d="M4.947 42.656C.982 39.102 0 34.442 0 30.56 0 27.821.94 23.039 4.582 19.404 7.031 16.95 10.753 15.028 17.045 15.028 18.682 15.028 20.97 15.15 22.971 15.518 24.525 15.803 25.834 16.049 27.141 16.132 27.589 16.174 27.671 16.338 27.671 16.584 27.671 16.909 27.549 17.399 27.467 18.871 27.386 20.22 27.386 22.467 27.345 23.079 27.304 23.693 27.222 23.936 26.977 23.936 26.692 23.936 26.65 23.651 26.65 23.079 26.65 21.486 25.997 19.811 24.934 18.911 23.504 17.684 20.357 16.584 16.759 16.584 11.323 16.584 8.789 18.176 7.359 19.565 4.375 22.427 3.679 26.064 3.679 30.233 3.679 38.041 9.69 45.191 18.434 45.191 21.502 45.191 23.913 44.824 25.547 43.149 26.404 42.25 26.937 40.452 27.059 39.715 27.141 39.263 27.222 39.102 27.467 39.102 27.671 39.102 27.753 39.387 27.753 39.715 27.753 40.001 27.262 43.557 26.856 44.945 26.61 45.723 26.53 45.806 25.792 46.133 24.158 46.784 21.051 47.071 18.434 47.071 12.305 47.072 8.177 45.558 4.947 42.656M81.034 34.646C81.034 38.57 81.034 41.797 81.238 43.517 81.361 44.703 81.608 45.598 82.833 45.764 83.405 45.846 84.307 45.928 84.674 45.928 84.917 45.928 85 46.051 85 46.173 85 46.379 84.797 46.499 84.348 46.499 82.098 46.499 79.523 46.379 79.321 46.379 79.116 46.379 76.542 46.499 75.312 46.499 74.864 46.499 74.659 46.417 74.659 46.173 74.659 46.051 74.741 45.928 74.985 45.928 75.354 45.928 75.844 45.846 76.212 45.764 77.03 45.598 77.235 44.702 77.399 43.517 77.603 41.797 77.603 38.57 77.603 34.646L77.603 27.454C77.603 21.076 77.603 19.933 77.52 18.622 77.44 17.235 77.031 16.541 76.134 16.336 75.682 16.213 75.152 16.173 74.864 16.173 74.701 16.173 74.536 16.09 74.536 15.926 74.536 15.68 74.741 15.599 75.19 15.599 76.542 15.599 79.116 15.721 79.321 15.721 79.523 15.721 82.098 15.599 83.323 15.599 83.776 15.599 83.978 15.68 83.978 15.926 83.978 16.09 83.816 16.173 83.65 16.173 83.364 16.173 83.12 16.213 82.629 16.296 81.527 16.5 81.199 17.195 81.119 18.622 81.034 19.933 81.034 21.076 81.034 27.454L81.034 34.646 81.034 34.646z"/>
  </g>
</svg>
